<?xml version="1.0" encoding="UTF-8"?>
<svg width="103px" height="34px" viewBox="0 0 103 34" version="1.1" xmlns="http://www.w3.org/2000/svg" xmlns:xlink="http://www.w3.org/1999/xlink">
    <!-- Generator: Sketch 49 (51002) - http://www.bohemiancoding.com/sketch -->
    <title>Jigsaw</title>
    <desc>Created with Sketch.</desc>
    <defs></defs>
    <g id="Page-1" stroke="none" stroke-width="1" fill="none" fill-rule="evenodd">
        <g id="about-003" transform="translate(-23.000000, -540.000000)">
            <g id="Jigsaw" transform="translate(21.000000, 538.000000)">
                <rect id="boundingbox" fill-opacity="0" fill="#FFFFFF" x="0" y="0" width="106" height="38"></rect>
                <g id="Jigsaw_Logo_White" transform="translate(2.000000, 2.000000)" fill="#263238" fill-rule="nonzero">
                    <path d="M16.9871099,0 C7.60553846,0 0,7.60516483 0,16.9871099 C0,26.3686813 7.60553846,33.9742198 16.9871099,33.9742198 C26.369055,33.9742198 33.9742198,26.3686813 33.9742198,16.9871099 C33.9742198,7.60516483 26.369055,0 16.9871099,0 Z M24.4405824,18.740912 C24.4405824,19.2778132 24.0053076,19.7129011 23.4684067,19.7129011 C22.9316924,19.7129011 22.4964176,20.1483626 22.4964176,20.6850769 L22.4964176,21.4497032 C22.4964176,21.9866044 22.9316924,22.4218792 23.4684067,22.4218792 C24.0053076,22.4218792 24.4405824,22.8571538 24.4405824,23.3938681 L24.4405824,23.4200219 C24.4405824,23.9569231 24.0053076,24.3923845 23.4684067,24.3923845 L23.2513296,24.3920111 C23.0198681,24.4041538 22.7187252,24.4764506 22.4519561,24.743033 C22.1851868,25.0098023 22.1011208,25.3126263 22.1011208,25.5425933 L22.1011208,25.7615385 L22.1009342,25.7615385 C22.1009342,25.782088 22.1,25.8024506 22.0988792,25.8228132 C22.0988792,26.0539011 22.0206044,26.2988132 21.8444395,26.4753517 C21.668088,26.6517032 21.426912,26.7296044 21.1956374,26.7296044 C21.1741538,26.7310989 21.1524836,26.7318462 21.1308132,26.7318462 L20.9118681,26.7318462 C20.7226263,26.7318462 20.3790769,26.815912 20.1123076,27.0826813 C19.8455385,27.3494506 19.7734286,27.6505933 19.7612857,27.882055 L19.7612857,28.101 C19.7612857,28.6367802 19.326945,29.0711208 18.7911649,29.0711208 L18.761088,29.0711208 C18.4931977,29.0711208 18.2505275,28.9625824 18.0752967,28.7871649 C17.8996924,28.6115605 17.790967,28.3692637 17.790967,28.1013737 L17.7911538,28.0991319 C17.7911538,27.5624176 17.3558792,27.1271429 16.818978,27.1271429 L16.0543516,27.1271429 C15.5176374,27.1271429 15.0823626,27.5624176 15.0823626,28.0991319 L15.0821758,28.0991319 C15.0827363,28.6362198 14.6472747,29.0716813 14.1101868,29.0714945 L14.0834725,29.0714945 C13.5467582,29.0709341 13.112044,28.6356593 13.112044,28.0991319 C13.112044,27.5624176 12.6765824,27.1271429 12.1398681,27.1271429 L10.7942527,27.1271429 C10.5637253,27.1271429 10.3772857,26.9403296 10.3772857,26.7098023 L10.3772857,25.3641868 C10.3772857,24.8274725 9.94182418,24.3923845 9.40492307,24.3923845 C8.8682088,24.3923845 8.43274725,23.9569231 8.43274725,23.4200219 L8.43274725,23.3938681 C8.43274725,22.8571538 8.8682088,22.4218792 9.40492307,22.4218792 L9.43107693,22.4218792 C9.9677912,22.4218792 10.4030659,22.8571538 10.4030659,23.3938681 C10.4030659,23.9307693 10.8381539,24.3662307 11.3752418,24.3662307 L12.1398681,24.3662307 C12.6765824,24.3662307 13.112044,23.9307693 13.112044,23.3938681 C13.112044,22.8571538 13.5473187,22.4218792 14.084033,22.4218792 L14.1101868,22.4218792 C14.6470879,22.4218792 15.0823626,22.8571538 15.0823626,23.3938681 C15.0823626,23.9307693 15.5176374,24.3662307 16.0543516,24.3662307 L16.818978,24.3662307 C17.3558792,24.3662307 17.7911538,23.9307693 17.7911538,23.3938681 C17.790967,22.8571538 18.2264286,22.4218792 18.7631429,22.4218792 C19.3000439,22.4218792 19.7355055,21.9866044 19.7355055,21.4497032 L19.7355055,20.6850769 C19.7355055,20.1483626 19.3000439,19.7129011 18.7631429,19.7129011 C18.2264286,19.7129011 17.790967,19.2778132 17.790967,18.740912 L17.790967,18.7147582 C17.790967,18.1780439 18.2264286,17.7427693 18.7631429,17.7427693 C19.3000439,17.7427693 19.7355055,17.3074945 19.7355055,16.7705934 L19.7355055,16.005967 C19.7355055,15.4692527 19.3000439,15.0337912 18.7631429,15.0337912 C18.2264286,15.0337912 17.790967,14.5987033 17.790967,14.0618022 L17.790967,14.0356484 L17.790967,10.3397363 C17.790967,9.80414286 18.2253076,9.36980219 18.761088,9.36980219 L18.7864945,9.36980219 C19.323022,9.36980219 19.7465275,8.93135164 19.7401758,8.39501099 L19.7401758,7.21042857 L19.7401758,6.04116483 C19.7401758,5.29540658 20.3402198,4.69069231 21.0859781,4.69069231 L21.1455714,4.69069231 C21.8915164,4.69069231 22.4962307,5.29540658 22.4962307,6.04116483 L22.4962307,6.45327473 C22.4962307,6.99036263 22.9316924,7.42563737 23.4684067,7.42563737 C24.0053076,7.42563737 24.4403956,7.86072527 24.4403956,8.39743956 L24.4403956,8.42359341 L24.4403956,10.3645824 L23.4816704,10.3645824 C23.2513296,10.3645824 23.0645164,10.5513956 23.0645164,10.7815494 L23.0645164,12.1271648 C23.0645164,12.6640659 22.629055,13.0995275 22.0923407,13.0995275 C21.5554395,13.0995275 21.1203517,13.5346154 21.1203517,14.0713297 L21.1203517,14.0974835 C21.1203517,14.6343846 21.5554395,15.0694725 22.0923407,15.0694725 L22.1184945,15.0694725 C22.6552088,15.0694725 23.0904836,14.6343846 23.0904836,14.0974835 C23.0904836,13.5607692 23.5257582,13.1253077 24.0626593,13.1253077 L24.4403956,13.1253077 L24.4405824,18.7147582 L24.4405824,18.740912 Z" id="Fill-30"></path>
                </g>
                <path d="M48.7,26.32 C47.6599948,26.32 46.773337,26.0300029 46.04,25.45 C45.306663,24.8699971 44.7866682,24.0533386 44.48,23 L46.16,22.3 C46.5866688,23.8066742 47.4599934,24.56 48.78,24.56 C49.6333376,24.56 50.2899977,24.2833361 50.75,23.73 C51.2100023,23.1766639 51.44,22.4266714 51.44,21.48 L51.44,11.68 L53.28,11.68 L53.28,21.44 C53.28,23.0000078 52.8500043,24.2033291 51.99,25.05 C51.1299957,25.8966709 50.03334,26.32 48.7,26.32 Z M57.6,13.74 C57.3466654,13.9933346 57.0400018,14.12 56.68,14.12 C56.3199982,14.12 56.0133346,13.9933346 55.76,13.74 C55.5066654,13.4866654 55.38,13.1800018 55.38,12.82 C55.38,12.4599982 55.5066654,12.1533346 55.76,11.9 C56.0133346,11.6466654 56.3199982,11.52 56.68,11.52 C57.0400018,11.52 57.3466654,11.6466654 57.6,11.9 C57.8533346,12.1533346 57.98,12.4599982 57.98,12.82 C57.98,13.1800018 57.8533346,13.4866654 57.6,13.74 Z M57.6,26 L55.76,26 L55.76,16.2 L57.6,16.2 L57.6,26 Z M64.16,30.64 C62.9999942,30.64 62.053337,30.3500029 61.32,29.77 C60.586663,29.1899971 60.0600016,28.5266704 59.74,27.78 L61.42,27.08 C61.6066676,27.613336 61.9499975,28.0599982 62.45,28.42 C62.9500025,28.7800018 63.5199968,28.96 64.16,28.96 C65.1733384,28.96 65.9699971,28.6566697 66.55,28.05 C67.1300029,27.4433303 67.42,26.6200052 67.42,25.58 L67.42,24.64 L67.34,24.64 C67.0199984,25.1200024 66.5666696,25.5199984 65.98,25.84 C65.3933304,26.1600016 64.733337,26.32 64,26.32 C62.733327,26.32 61.6400046,25.820005 60.72,24.82 C59.7999954,23.819995 59.34,22.5800074 59.34,21.1 C59.34,19.6199926 59.7999954,18.380005 60.72,17.38 C61.6400046,16.379995 62.733327,15.88 64,15.88 C64.733337,15.88 65.3933304,16.0399984 65.98,16.36 C66.5666696,16.6800016 67.0199984,17.0799976 67.34,17.56 L67.42,17.56 L67.42,16.2 L69.18,16.2 L69.18,25.5 C69.18,27.1800084 68.6933382,28.4566623 67.72,29.33 C66.7466618,30.2033377 65.560007,30.64 64.16,30.64 Z M64.3,24.64 C65.166671,24.64 65.9033303,24.3200032 66.51,23.68 C67.1166697,23.0399968 67.42,22.1800054 67.42,21.1 C67.42,20.0199946 67.1166697,19.1600032 66.51,18.52 C65.9033303,17.8799968 65.166671,17.56 64.3,17.56 C63.4466624,17.56 62.7133364,17.8833301 62.1,18.53 C61.4866636,19.1766699 61.18,20.033328 61.18,21.1 C61.18,22.166672 61.4866636,23.0233301 62.1,23.67 C62.7133364,24.3166699 63.4466624,24.64 64.3,24.64 Z M74.96,26.32 C73.8666612,26.32 72.9633369,26.053336 72.25,25.52 C71.5366631,24.986664 71.013335,24.320004 70.68,23.52 L72.32,22.84 C72.8400026,24.0666728 73.7266604,24.68 74.98,24.68 C75.5533362,24.68 76.0233315,24.5533346 76.39,24.3 C76.7566685,24.0466654 76.94,23.7133354 76.94,23.3 C76.94,22.6599968 76.4933378,22.2266678 75.6,22 L73.62,21.52 C72.9933302,21.3599992 72.4000028,21.0566689 71.84,20.61 C71.2799972,20.1633311 71,19.5600038 71,18.8 C71,17.933329 71.3833295,17.2300027 72.15,16.69 C72.9166705,16.1499973 73.8266614,15.88 74.88,15.88 C75.746671,15.88 76.5199966,16.0766647 77.2,16.47 C77.8800034,16.8633353 78.3666652,17.426663 78.66,18.16 L77.06,18.82 C76.6999982,17.953329 75.953339,17.52 74.82,17.52 C74.2733306,17.52 73.8133352,17.6333322 73.44,17.86 C73.0666648,18.0866678 72.88,18.3933314 72.88,18.78 C72.88,19.3400028 73.313329,19.719999 74.18,19.92 L76.12,20.38 C77.0400046,20.5933344 77.7199978,20.9599974 78.16,21.48 C78.6000022,22.0000026 78.82,22.5866634 78.82,23.24 C78.82,24.1200044 78.4600036,24.8533304 77.74,25.44 C77.0199964,26.0266696 76.093339,26.32 74.96,26.32 Z M83.62,26.32 C82.5799948,26.32 81.7100035,26.020003 81.01,25.42 C80.3099965,24.819997 79.96,24.0266716 79.96,23.04 C79.96,21.973328 80.3733292,21.1366697 81.2,20.53 C82.0266708,19.9233303 83.0466606,19.62 84.26,19.62 C85.3400054,19.62 86.2266632,19.819998 86.92,20.22 L86.92,19.94 C86.92,19.2199964 86.6733358,18.6433355 86.18,18.21 C85.6866642,17.7766645 85.0800036,17.56 84.36,17.56 C83.826664,17.56 83.3433355,17.6866654 82.91,17.94 C82.4766645,18.1933346 82.1800008,18.5399978 82.02,18.98 L80.34,18.26 C80.5666678,17.6733304 81.01333,17.1300025 81.68,16.63 C82.34667,16.1299975 83.2266612,15.88 84.32,15.88 C85.5733396,15.88 86.6133292,16.246663 87.44,16.98 C88.2666708,17.713337 88.68,18.74666 88.68,20.08 L88.68,26 L86.92,26 L86.92,24.64 L86.84,24.64 C86.106663,25.7600056 85.0333404,26.32 83.62,26.32 Z M83.92,24.64 C84.6800038,24.64 85.3699969,24.3566695 85.99,23.79 C86.6100031,23.2233305 86.92,22.5533372 86.92,21.78 C86.3999974,21.3533312 85.6200052,21.14 84.58,21.14 C83.6866622,21.14 83.0133356,21.3333314 82.56,21.72 C82.1066644,22.1066686 81.88,22.5599974 81.88,23.08 C81.88,23.5600024 82.0866646,23.9399986 82.5,24.22 C82.9133354,24.5000014 83.386664,24.64 83.92,24.64 Z M101.28,26 L99.4,26 L96.96,18.48 L94.54,26 L92.68,26 L89.52,16.2 L91.44,16.2 L93.62,23.6 L93.64,23.6 L96.06,16.2 L97.96,16.2 L100.38,23.6 L100.4,23.6 L102.56,16.2 L104.44,16.2 L101.28,26 Z" fill="#263238"></path>
            </g>
        </g>
    </g>
</svg>