<?xml version="1.0" encoding="UTF-8"?>
<svg width="64px" height="15px" viewBox="0 0 64 15" version="1.1" xmlns="http://www.w3.org/2000/svg" xmlns:xlink="http://www.w3.org/1999/xlink">
    <!-- Generator: Sketch 49.3 (51167) - http://www.bohemiancoding.com/sketch -->
    <title>outline-logotype</title>
    <desc>Created with Sketch.</desc>
    <defs></defs>
    <g id="Page-1" stroke="none" stroke-width="1" fill="none" fill-rule="evenodd">
        <g id="feedback---003" transform="translate(-140.000000, -44.000000)">
            <g id="outline-logotype" transform="translate(134.027344, 38.716797)">
                <rect id="Rectangle-2" x="0.0830078125" y="0.401855469" width="76" height="24"></rect>
                <path d="M12.6506563,19.4672043 C11.40265,19.4672043 10.2686614,19.1702073 9.24865625,18.5762043 C8.22865115,17.9822013 7.42765916,17.1692095 6.84565625,16.1372043 C6.26365334,15.1051991 5.97265625,13.9712105 5.97265625,12.7352043 C5.97265625,11.4991982 6.26365334,10.3682095 6.84565625,9.34220435 C7.42765916,8.31619922 8.22865115,7.50320735 9.24865625,6.90320435 C10.2686614,6.30320135 11.40265,6.00320435 12.6506563,6.00320435 C13.8986625,6.00320435 15.0296511,6.30320135 16.0436562,6.90320435 C17.0576614,7.50320735 17.8586534,8.31619922 18.4466563,9.34220435 C19.0346591,10.3682095 19.3286563,11.4991982 19.3286563,12.7352043 C19.3286563,13.9712105 19.0376591,15.1051991 18.4556563,16.1372043 C17.8736533,17.1692095 17.0726614,17.9822013 16.0526562,18.5762043 C15.0326511,19.1702073 13.8986625,19.4672043 12.6506563,19.4672043 Z M12.6506563,17.5412043 C13.5026605,17.5412043 14.2826528,17.3372063 14.9906563,16.9292043 C15.6986598,16.5212023 16.2566543,15.9542079 16.6646563,15.2282043 C17.0726583,14.5022007 17.2766563,13.671209 17.2766563,12.7352043 C17.2766563,11.7991997 17.0726583,10.968208 16.6646563,10.2422043 C16.2566543,9.51620072 15.6986598,8.94920639 14.9906563,8.54120435 C14.2826528,8.13320231 13.5026605,7.92920435 12.6506563,7.92920435 C11.798652,7.92920435 11.0186598,8.13320231 10.3106563,8.54120435 C9.60265271,8.94920639 9.04165832,9.51620072 8.62765625,10.2422043 C8.21365418,10.968208 8.00665625,11.7991997 8.00665625,12.7352043 C8.00665625,13.671209 8.21365418,14.5022007 8.62765625,15.2282043 C9.04165832,15.9542079 9.60265271,16.5212023 10.3106563,16.9292043 C11.0186598,17.3372063 11.798652,17.5412043 12.6506563,17.5412043 Z M25.1066563,19.4672043 C23.9906507,19.4672043 23.1416592,19.1342076 22.5596563,18.4682043 C21.9776533,17.802201 21.6866563,16.8752102 21.6866563,15.6872043 L21.6866563,9.99920435 L23.6666563,9.99920435 L23.6666563,15.4172043 C23.6666563,16.161208 23.8436545,16.7192024 24.1976563,17.0912043 C24.551658,17.4632062 25.0166534,17.6492043 25.5926563,17.6492043 C26.0606586,17.6492043 26.4746545,17.5262055 26.8346563,17.2802043 C27.1946581,17.0342031 27.4706553,16.7072063 27.6626563,16.2992043 C27.8546572,15.8912023 27.9506563,15.4532066 27.9506563,14.9852043 L27.9506563,9.99920435 L29.9306563,9.99920435 L29.9306563,19.1792043 L28.0586563,19.1792043 L28.0586563,17.9912043 L27.9506563,17.9912043 C27.698655,18.4232065 27.3086589,18.7772029 26.7806563,19.0532043 C26.2526536,19.3292057 25.6946592,19.4672043 25.1066563,19.4672043 Z M36.5366561,19.3232043 C36.1286542,19.3232043 35.744658,19.257205 35.3846562,19.1252043 C35.0246544,18.9932036 34.7306574,18.8192054 34.5026562,18.6032043 C33.9866535,18.0872017 33.7286562,17.3852087 33.7286562,16.4972043 L33.7286562,11.7452043 L32.1266562,11.7452043 L32.1266562,9.99920435 L33.7286562,9.99920435 L33.7286562,7.40720435 L35.7086562,7.40720435 L35.7086562,9.99920435 L37.9406562,9.99920435 L37.9406562,11.7452043 L35.7086562,11.7452043 L35.7086562,16.0652043 C35.7086562,16.5572068 35.8046553,16.9052033 35.9966562,17.1092043 C36.1766571,17.3492055 36.4886539,17.4692043 36.9326561,17.4692043 C37.1366572,17.4692043 37.3166554,17.4422046 37.4726562,17.3882043 C37.628657,17.334204 37.7966553,17.2472049 37.9766561,17.1272043 L37.9766561,19.0532043 C37.5806542,19.2332052 37.100659,19.3232043 36.5366561,19.3232043 Z M40.3706562,6.29120435 L42.3506561,6.29120435 L42.3506561,19.1792043 L40.3706562,19.1792043 L40.3706562,6.29120435 Z M46.2566561,8.66720435 C45.8846543,8.66720435 45.5696574,8.53820564 45.3116561,8.28020435 C45.0536548,8.02220306 44.9246561,7.70720621 44.9246561,7.33520435 C44.9246561,6.96320249 45.0536548,6.64820564 45.3116561,6.39020435 C45.5696574,6.13220306 45.8846543,6.00320435 46.2566561,6.00320435 C46.628658,6.00320435 46.9436548,6.13220306 47.2016561,6.39020435 C47.4596574,6.64820564 47.5886561,6.96320249 47.5886561,7.33520435 C47.5886561,7.70720621 47.4596574,8.02220306 47.2016561,8.28020435 C46.9436548,8.53820564 46.628658,8.66720435 46.2566561,8.66720435 Z M45.2666561,9.99920435 L47.2466561,9.99920435 L47.2466561,19.1792043 L45.2666561,19.1792043 L45.2666561,9.99920435 Z M50.1626561,9.99920435 L52.0526561,9.99920435 L52.0526561,11.2052043 L52.142656,11.2052043 C52.4066574,10.7732022 52.7996535,10.4162058 53.3216561,10.1342043 C53.8436587,9.85220294 54.3986532,9.71120435 54.9866561,9.71120435 C56.1026617,9.71120435 56.9516531,10.0382011 57.533656,10.6922043 C58.1156589,11.3462076 58.4066561,12.2371987 58.4066561,13.3652043 L58.4066561,19.1792043 L56.426656,19.1792043 L56.426656,13.6352043 C56.426656,12.9152007 56.2496578,12.387206 55.895656,12.0512043 C55.5416543,11.7152027 55.0526591,11.5472043 54.4286561,11.5472043 C53.9846539,11.5472043 53.5886578,11.6702031 53.240656,11.9162043 C52.8926544,12.1622056 52.6226571,12.4892023 52.4306561,12.8972043 C52.238655,13.3052063 52.142656,13.743202 52.142656,14.2112043 L52.142656,19.1792043 L50.1626561,19.1792043 L50.1626561,9.99920435 Z M65.2826559,19.4672043 C64.3826514,19.4672043 63.5756595,19.2572064 62.8616559,18.8372043 C62.1476525,18.4172022 61.589658,17.838208 61.1876559,17.1002043 C60.7856539,16.3622006 60.5846559,15.5312089 60.5846559,14.6072043 C60.5846559,13.7311999 60.779654,12.9182081 61.1696559,12.1682043 C61.559658,11.4182006 62.1026526,10.8212066 62.7986559,10.3772043 C63.4946595,9.93320213 64.2866516,9.71120435 65.174656,9.71120435 C66.0986606,9.71120435 66.8996527,9.91520231 67.577656,10.3232043 C68.2556594,10.7312064 68.7716542,11.2892008 69.1256559,11.9972043 C69.4796578,12.7052079 69.656656,13.5031999 69.656656,14.3912043 C69.656656,14.5592051 69.6386562,14.769203 69.6026559,15.0212043 L62.564656,15.0212043 C62.6366564,15.8732086 62.9396534,16.530202 63.473656,16.9922043 C64.0076586,17.4542066 64.6286525,17.6852043 65.3366559,17.6852043 C65.9006588,17.6852043 66.3896539,17.5562056 66.803656,17.2982043 C67.217658,17.040203 67.5506548,16.6892065 67.802656,16.2452043 L69.4766559,17.0372043 C69.0446539,17.7932081 68.4806595,18.3872021 67.784656,18.8192043 C67.0886526,19.2512065 66.2546608,19.4672043 65.2826559,19.4672043 Z M67.6406559,13.5092043 C67.6166559,13.1852027 67.5146568,12.8642059 67.3346559,12.5462043 C67.1546551,12.2282028 66.8816579,11.9612054 66.5156559,11.7452043 C66.1496542,11.5292033 65.7026586,11.4212043 65.174656,11.4212043 C64.5386529,11.4212043 64.0016581,11.6102025 63.5636559,11.9882043 C63.1256538,12.3662062 62.8226569,12.8732012 62.6546559,13.5092043 L67.6406559,13.5092043 Z" id="Outline" fill="#FFFFFF" fill-rule="nonzero"></path>
            </g>
        </g>
    </g>
</svg>