<?xml version="1.0" encoding="utf-8"?>
<!-- Generator: Adobe Illustrator 23.1.1, SVG Export Plug-In . SVG Version: 6.00 Build 0)  -->
<svg version="1.1" id="Layer_1" xmlns="http://www.w3.org/2000/svg" xmlns:xlink="http://www.w3.org/1999/xlink" x="0px" y="0px"
	 viewBox="0 0 153.1 34" style="enable-background:new 0 0 153.1 34;" xml:space="preserve">
<style type="text/css">
	.st0{clip-path:url(#SVGID_2_);fill:#263238;}
</style>
<title>Jigsaw</title>
<desc>Created with Sketch.</desc>
<g>
	<g>
		<defs>
			<rect id="SVGID_1_" x="0.2" y="4.6" width="152.4" height="25"/>
		</defs>
		<clipPath id="SVGID_2_">
			<use xlink:href="#SVGID_1_"  style="overflow:visible;"/>
		</clipPath>
		<path class="st0" d="M54.8,7.7h11.4V11h-3.7v12.1h3.7v3.3H54.8v-3.3h3.6V11h-3.7V7.7H54.8z M77.1,19.2h4.6l-0.1,0.3
			c-0.4,2.7-2.2,4.2-4.6,4.2c-2.9,0-4.9-2.3-4.9-6.3V17c0-4,2.1-6.4,5-6.4c2.2,0,3.8,1.2,4.1,3.2h4.1c-0.5-4-3.7-6.5-8.2-6.5
			c-5.5,0-9.2,3.9-9.2,9.8v0.2c0,6,3.3,9.6,8.2,9.6c2.4,0,4.4-1,5.6-2.8v2.4h3.8V15.9h-8.4V19.2L77.1,19.2z M41.4,11h6.3v8.6
			c0,2.7-1.2,4-3,4s-3-1.3-3-3.9h-4c0.1,4.5,2.7,7.1,7.1,7.1c4.3,0,7.1-2.6,7.1-7.4V7.7h-8.8L41.4,11z M148.5,7.7l-4.9,14.6
			l-3.5-14.6H135l-3.5,14.6l-4.9-14.6h-4.3l6.6,18.8h5.4l3.2-13.2l3.2,13.3h5.5l6.6-18.8h-4.3V7.7z M99.2,15.5l-4-0.8
			c-1.7-0.4-2.3-1-2.3-2c0-1.2,1.2-2.2,3.4-2.2c2.4,0,3.8,1.1,4,2.9h3.9c-0.2-3.8-3.2-6.1-7.9-6.1c-4.8,0-7.5,2.3-7.5,5.9
			c0,2.9,1.6,4.5,5.2,5.2l3.9,0.8c1.7,0.4,2.3,1,2.3,2.1c0,1.5-1.4,2.4-3.7,2.4c-2.8,0-4.1-1.1-4.3-3.1h-3.9c0.2,4,2.9,6.4,8.2,6.4
			c4.9,0,7.8-2.3,7.8-6.1C104.4,17.9,102.8,16.3,99.2,15.5 M117.7,7.7l6.6,18.8H120l-1.4-4.2h-7.5l-1.4,4.2h-4.1l6.6-18.8L117.7,7.7
			z M117.4,19l-2.6-7.7l-2.6,7.7H117.4z M10.4,9c0.7-0.2,1.5-0.3,2.2-0.3c4.6,0,8.3,3.7,8.3,8.3s-3.6,8.4-8.2,8.4
			c-3.5,0-6.6-2.2-7.8-5.3l-4.7,9.5h25v-25H12.7L10.4,9z"/>
	</g>
</g>
</svg>
