<?xml version="1.0" encoding="utf-8"?>
<!-- Generator: Adobe Illustrator 23.1.1, SVG Export Plug-In . SVG Version: 6.00 Build 0)  -->
<svg version="1.1" id="Layer_1" xmlns="http://www.w3.org/2000/svg" xmlns:xlink="http://www.w3.org/1999/xlink" x="0px" y="0px"
	 viewBox="0 0 64 15" style="enable-background:new 0 0 64 15;" xml:space="preserve">
<style type="text/css">
	.st0{fill:none;}
	.st1{fill:#FFFFFF;}
</style>
<title>outline-logotype</title>
<desc>Created with Sketch.</desc>
<g id="Page-1">
	<g id="feedback---003" transform="translate(-140.000000, -44.000000)">
		<g id="outline-logotype" transform="translate(134.027344, 38.716797)">
			<rect id="Rectangle-2" x="0.1" y="0.4" class="st0" width="76" height="24"/>
			<g id="ART_1_">
				<path class="st1" d="M6,12.7v-0.1c0-4.2,2.7-6.9,6.5-6.9S19,8.4,19,12.6v0.1c0,4.2-2.7,6.9-6.5,6.9S6,17,6,12.7z M16,12.8v-0.3
					C16,9.7,14.5,8,12.5,8S9,9.7,9,12.5v0.3c0,2.8,1.5,4.5,3.5,4.5S16,15.6,16,12.8L16,12.8z"/>
				<path class="st1" d="M29.3,19.3h-2.7v-1.5c-0.6,1.1-1.8,1.8-3,1.7c-2.1,0-3.4-1.4-3.4-3.7V9.7H23v5.9c0,1.1,0.6,1.8,1.6,1.8
					c1.2,0,1.9-0.9,1.9-2.4V9.7h2.8L29.3,19.3z"/>
				<path class="st1" d="M32.3,16.1v-4.1h-1.7V9.7h1.7V6.9h2.8v2.8H38v2.2h-2.8v4.8c0,0.3,0.1,0.4,0.4,0.4H38v2.3h-2.1
					C33.6,19.3,32.3,18.2,32.3,16.1z"/>
				<path class="st1" d="M39.6,5.6h2.8v13.7h-2.8V5.6z"/>
				<path class="st1" d="M44.4,7c0-0.9,0.7-1.6,1.5-1.6c0.9,0,1.6,0.7,1.6,1.5c0,0,0,0.1,0,0.1c0,0.9-0.7,1.5-1.6,1.5
					C45.1,8.5,44.4,7.8,44.4,7z M44.5,9.7h2.8v9.6h-2.8L44.5,9.7z"/>
				<path class="st1" d="M49.4,9.7h2.7v1.5c0.6-1.1,1.8-1.8,3-1.7c2.1,0,3.4,1.4,3.4,3.7v6.1h-2.8v-5.9c0-1.1-0.6-1.8-1.6-1.8
					c-1.2,0-1.9,0.9-1.9,2.4v5.3h-2.8V9.7z"/>
				<path class="st1" d="M60.1,14.6L60.1,14.6c0-3.2,2-5.2,5-5.2c2.8,0,4.8,2,4.8,5.2v0.6h-7c0.2,1.5,0.9,2.2,2.2,2.2
					c0.9,0,1.6-0.4,1.9-1.1h2.8c-0.4,1.9-2.3,3.3-4.7,3.3C62,19.6,60.1,17.8,60.1,14.6z M63,13.4H67c-0.3-1.3-1-1.9-2-1.9
					C64,11.5,63.2,12.1,63,13.4z"/>
			</g>
		</g>
	</g>
</g>
</svg>
