<?xml version="1.0" encoding="UTF-8" standalone="no"?>
<!DOCTYPE svg PUBLIC "-//W3C//DTD SVG 1.1//EN" "http://www.w3.org/Graphics/SVG/1.1/DTD/svg11.dtd">
<svg version="1.1" xmlns="http://www.w3.org/2000/svg" xmlns:xlink="http://www.w3.org/1999/xlink" preserveAspectRatio="xMidYMid meet" viewBox="0 0 18 18" width="18" height="18"><defs><path d="M0 0C0 0 0 0 0 0C0 10.8 0 16.8 0 18C0 18 0 18 0 18C10.8 18 16.8 18 18 18C18 18 18 18 18 18C18 7.2 18 1.2 18 0C18 0 18 0 18 0C7.2 0 1.2 0 0 0Z" id="e5SCyvaqZI"></path><path d="M14.41 9.06L10.45 13.28L3.59 5.95L5.05 4.59L10.45 10.36L12.95 7.69L14.41 9.06Z" id="a4YtBrc4C"></path></defs><g><g><g><use xlink:href="#e5SCyvaqZI" opacity="1" fill="#ffffff" fill-opacity="0"></use><g><use xlink:href="#e5SCyvaqZI" opacity="1" fill-opacity="0" stroke="#000000" stroke-width="1" stroke-opacity="0"></use></g></g><g><use xlink:href="#a4YtBrc4C" opacity="1" fill="#ffffff" fill-opacity="1"></use><g><use xlink:href="#a4YtBrc4C" opacity="1" fill-opacity="0" stroke="#000000" stroke-width="1" stroke-opacity="0"></use></g></g></g></g></svg>