<?xml version="1.0" encoding="UTF-8"?>
<svg width="28px" height="28px" viewBox="0 0 28 28" version="1.1" xmlns="http://www.w3.org/2000/svg" xmlns:xlink="http://www.w3.org/1999/xlink">
    <!-- Generator: Sketch 50.2 (55047) - http://www.bohemiancoding.com/sketch -->
    <title>Artboard Copy</title>
    <desc>Created with Sketch.</desc>
    <defs></defs>
    <g id="Artboard-Copy" stroke="none" stroke-width="1" fill="none" fill-rule="evenodd">
        <g id="Group" transform="translate(0.000000, 1.000000)">
            <g id="ic_cloud_queue_24px">
                <polygon id="Shape" points="1.6969697 0 27.1515152 0 27.1515152 26 1.6969697 26"></polygon>
                <path d="M22.311731,10.4451316 C21.5425583,6.45908791 18.1152151,3.46666667 13.9978787,3.46666667 C10.7288947,3.46666667 7.8897424,5.36148166 6.47582195,8.13438165 C3.07110151,8.50410165 0.424242424,11.4503079 0.424242424,15.0204166 C0.424242424,18.8447079 3.46699923,21.9526666 7.21106058,21.9526666 L21.9158333,21.9526666 C25.0377696,21.9526666 27.5715151,19.3646266 27.5715151,16.1757916 C27.5715151,13.1256016 25.2526855,10.6530991 22.311731,10.4451316 Z" id="Shape" fill="#1DE9B6" fill-rule="nonzero"></path>
            </g>
            <rect id="Rectangle-6" fill="#FFFFFF" transform="translate(14.000000, 13.500000) rotate(-330.000000) translate(-14.000000, -13.500000) " x="13" y="8" width="2" height="11"></rect>
        </g>
    </g>
</svg>