<?xml version="1.0" encoding="UTF-8"?>
<svg width="28px" height="28px" viewBox="0 0 28 28" version="1.1" xmlns="http://www.w3.org/2000/svg" xmlns:xlink="http://www.w3.org/1999/xlink">
    <!-- Generator: Sketch 50.2 (55047) - http://www.bohemiancoding.com/sketch -->
    <title>Artboard</title>
    <desc>Created with Sketch.</desc>
    <defs></defs>
    <g id="Artboard" stroke="none" stroke-width="1" fill="none" fill-rule="evenodd">
        <g id="DO-Copy">
            <rect id="Rectangle-2" fill-opacity="0" fill="#FFFFFF" x="0" y="0" width="28" height="28"></rect>
            <path d="M13.959322,25.9288071 L13.959322,21.291519 C18.8677966,21.291519 22.6779661,16.4237224 20.7932203,11.2576207 C20.1016949,9.3457563 18.5694915,7.81355291 16.6576271,7.12202748 C11.4915254,5.25084104 6.62372881,9.04745121 6.62372881,13.9559258 L2,13.9559258 C2,6.13219698 9.56610169,0.0305020611 17.7694915,2.59321393 C21.3491525,3.71863765 24.2101695,6.56609528 25.3220339,10.1457563 C27.8847458,18.3627055 21.7966102,25.9288071 13.959322,25.9288071" id="Fill-1" fill="#143DFF"></path>
            <polygon id="Fill-4" fill="#1637FF" points="9 21 14 21 14 16 9 16"></polygon>
            <polygon id="Fill-5" fill="#1637FF" points="6 24 9 24 9 21 6 21"></polygon>
            <polygon id="Fill-6" fill="#1637FF" points="3 21 6 21 6 18 3 18"></polygon>
        </g>
    </g>
</svg>