<?xml version="1.0" encoding="utf-8"?>
<!-- Generator: Adobe Illustrator 23.1.1, SVG Export Plug-In . SVG Version: 6.00 Build 0)  -->
<svg version="1.1" id="Layer_1" xmlns="http://www.w3.org/2000/svg" xmlns:xlink="http://www.w3.org/1999/xlink" x="0px" y="0px"
	 viewBox="0 0 152.9 34" style="enable-background:new 0 0 152.9 34;" xml:space="preserve">
<style type="text/css">
	.st0{clip-path:url(#SVGID_2_);fill:#263238;}
</style>
<title>Jigsaw</title>
<desc>Created with Sketch.</desc>
<g>
	<defs>
		<rect id="SVGID_1_" x="0" y="4.2" width="152.4" height="25"/>
	</defs>
	<clipPath id="SVGID_2_">
		<use xlink:href="#SVGID_1_"  style="overflow:visible;"/>
	</clipPath>
	<path class="st0" d="M54.6,7.3H66v3.3h-3.7v12.1H66v3.3H54.6l0-3.3h3.6V10.6h-3.7V7.3z M76.9,18.8h4.6l-0.1,0.3
		c-0.4,2.7-2.2,4.2-4.6,4.2c-2.9,0-4.9-2.3-4.9-6.3v-0.4c0-4,2.1-6.4,5-6.4c2.2,0,3.8,1.2,4.1,3.2h4.1c-0.5-4-3.7-6.5-8.2-6.5
		c-5.5,0-9.2,3.9-9.2,9.8v0.2c0,6,3.3,9.6,8.2,9.6c2.4,0,4.4-1,5.6-2.8v2.4h3.8V15.5h-8.4L76.9,18.8L76.9,18.8z M41.2,10.6h6.3v8.6
		c0,2.7-1.2,4-3,4c-1.8,0-3-1.3-3-3.9h-4c0.1,4.5,2.7,7.1,7.1,7.1c4.3,0,7.1-2.6,7.1-7.4V7.3h-8.8L41.2,10.6z M148.3,7.3l-4.9,14.6
		l-3.5-14.6h-5.1l-3.5,14.6l-4.9-14.6h-4.3l6.6,18.8h5.4l3.2-13.2l3.2,13.3h5.5l6.6-18.8H148.3z M99,15.1L95,14.3
		c-1.7-0.4-2.3-1-2.3-2c0-1.2,1.2-2.2,3.4-2.2c2.4,0,3.8,1.1,4,2.9h3.9c-0.2-3.8-3.2-6.1-7.9-6.1c-4.8,0-7.5,2.3-7.5,5.9
		c0,2.9,1.6,4.5,5.2,5.2l3.9,0.8c1.7,0.4,2.3,1,2.3,2.1c0,1.5-1.4,2.4-3.7,2.4c-2.8,0-4.1-1.1-4.3-3.1h-3.9c0.2,4,2.9,6.4,8.2,6.4
		c4.9,0,7.8-2.3,7.8-6.1C104.2,17.5,102.6,15.9,99,15.1 M117.5,7.3l6.6,18.8h-4.3l-1.4-4.2h-7.5l-1.4,4.2h-4.1l6.6-18.8L117.5,7.3z
		 M117.2,18.6l-2.6-7.7l-2.6,7.7H117.2z M10.2,8.6c0.7-0.2,1.5-0.3,2.2-0.3c4.6,0,8.3,3.7,8.3,8.3S17.1,25,12.5,25
		c-3.5,0-6.6-2.2-7.8-5.3L0,29.2h25v-25H12.5L10.2,8.6z"/>
</g>
</svg>
