<?xml version="1.0" encoding="UTF-8"?>
<svg width="24px" height="19px" viewBox="0 0 24 19" version="1.1" xmlns="http://www.w3.org/2000/svg" xmlns:xlink="http://www.w3.org/1999/xlink">
    <!-- Generator: Sketch 51.1 (57501) - http://www.bohemiancoding.com/sketch -->
    <title>logo/google_cloud copy 4</title>
    <desc>Created with Sketch.</desc>
    <defs>
        <rect id="path-1" x="0" y="0" width="24" height="24"></rect>
    </defs>
    <g id="Page-1" stroke="none" stroke-width="1" fill="none" fill-rule="evenodd">
        <g id="DOSetup-001" transform="translate(-538.000000, -284.000000)">
            <g id="logo/google_cloud" transform="translate(538.000000, 282.000000)">
                <g id="logo_google_cloud_192px_clr">
                    <mask id="mask-2" fill="white">
                        <use xlink:href="#path-1"></use>
                    </mask>
                    <g id="SVGID_1_"></g>
                    <g id="Group" mask="url(#mask-2)" fill-rule="nonzero">
                        <g transform="translate(0.500000, 2.375000)" id="Shape">
                            <path d="M14.63875,5.23375 L15.375,5.2475 L17.37625,3.24625 L17.47375,2.39875 C15.88375,0.98375 13.79125,0.1225 11.5,0.1225 C7.35125,0.1225 3.8525,2.94375 2.815,6.76875 C3.03375,6.6175 3.5,6.73 3.5,6.73 L7.5,6.0725 C7.5,6.0725 7.7075,5.7325 7.80875,5.75375 C8.72375,4.7525 10.04,4.1225 11.5,4.1225 C12.6875,4.1225 13.78,4.54 14.63875,5.23375 Z" fill="#EA4335"></path>
                            <path d="M20.1875,6.77375 C19.72375,5.05875 18.76375,3.54625 17.4725,2.3975 L14.6375,5.2325 C15.7725,6.15 16.5,7.5525 16.5,9.1225 L16.5,9.6225 C17.87875,9.6225 19,10.74375 19,12.1225 C19,13.50125 17.87875,14.6225 16.5,14.6225 L11.5,14.6225 L11,15.125 L11,18.125 L11.5,18.6225 L16.5,18.6225 C20.08375,18.6225 23,15.70625 23,12.1225 C23,9.90625 21.885,7.9475 20.1875,6.77375 Z" fill="#4285F4"></path>
                            <path d="M6.5,18.6225 L11.49625,18.6225 L11.49625,14.6225 L6.5,14.6225 C6.1325,14.6225 5.785,14.54125 5.47,14.3975 L4.75,14.61875 L2.7475,16.62125 L2.5725,17.2975 C3.66375,18.1275 5.025,18.6225 6.5,18.6225 Z" fill="#34A853"></path>
                            <path d="M6.5,5.6225 C2.91625,5.6225 0,8.53875 0,12.1225 C0,14.2325 1.01125,16.11125 2.575,17.29875 L5.47375,14.4 C4.60625,14.0075 4,13.135 4,12.1225 C4,10.74375 5.12125,9.6225 6.5,9.6225 C7.5125,9.6225 8.385,10.22875 8.7775,11.09625 L11.67625,8.1975 C10.48875,6.63375 8.61,5.6225 6.5,5.6225 Z" fill="#FBBC05"></path>
                        </g>
                    </g>
                </g>
            </g>
        </g>
    </g>
</svg>