<?xml version="1.0" encoding="utf-8"?>
<!-- Generator: Adobe Illustrator 23.1.1, SVG Export Plug-In . SVG Version: 6.00 Build 0)  -->
<svg version="1.1" id="Layer_1" xmlns="http://www.w3.org/2000/svg" xmlns:xlink="http://www.w3.org/1999/xlink" x="0px" y="0px"
	 viewBox="0 0 141 18" style="enable-background:new 0 0 141 18;" xml:space="preserve">
<style type="text/css">
	.st0{fill:#FFFFFF;}
	.st1{fill:none;}
</style>
<g id="ART_19_">
	<path class="st0" d="M0,7.1V7c0-4.1,2.6-6.7,6.3-6.7s6.3,2.6,6.3,6.7v0.1c0,4.1-2.6,6.7-6.3,6.7S0,11.2,0,7.1z M9.7,7.2V6.9
		c0-2.7-1.4-4.4-3.4-4.4S2.9,4.2,2.9,6.9v0.3c0,2.7,1.4,4.4,3.4,4.4S9.7,10,9.7,7.2L9.7,7.2z"/>
	<path class="st0" d="M22.6,13.5H20v-1.4c-0.6,1.1-1.7,1.7-2.9,1.7c-2,0-3.3-1.4-3.3-3.6v-6h2.7v5.7c0,1.1,0.6,1.8,1.6,1.8
		c1.1,0,1.9-0.9,1.9-2.3V4.2h2.7L22.6,13.5z"/>
	<path class="st0" d="M25.5,10.4v-4h-1.6V4.2h1.6V1.5h2.7v2.7H31v2.1h-2.7V11c0,0.3,0.1,0.4,0.4,0.4H31v2.2h-2.1
		C26.7,13.5,25.5,12.4,25.5,10.4z"/>
	<path class="st0" d="M32.6,0.2h2.7v13.3h-2.7V0.2z"/>
	<path class="st0" d="M37.2,1.6c0-0.8,0.6-1.5,1.5-1.6c0.8,0,1.5,0.6,1.6,1.5c0,0,0,0.1,0,0.1c0,0.8-0.7,1.5-1.6,1.5
		C37.9,3,37.2,2.4,37.2,1.6z M37.4,4.2h2.7v9.3h-2.7L37.4,4.2z"/>
	<path class="st0" d="M42.1,4.2h2.6v1.4c0.6-1.1,1.7-1.7,2.9-1.7c2,0,3.3,1.4,3.3,3.6v6h-2.7V7.9c0-1.1-0.6-1.8-1.6-1.8
		c-1.1,0-1.9,0.9-1.9,2.3v5.1h-2.7V4.2z"/>
	<path class="st0" d="M52.4,9L52.4,9c0-3.1,1.9-5.1,4.8-5.1c2.7,0,4.7,1.9,4.7,5v0.6h-6.7c0.2,1.5,0.9,2.1,2.1,2.1
		c0.9,0,1.5-0.4,1.8-1.1h2.7c-0.4,1.9-2.2,3.2-4.5,3.2C54.3,13.8,52.4,12,52.4,9z M55.2,7.8h3.9C58.9,6.6,58.2,6,57.2,6
		C56.2,6,55.4,6.6,55.2,7.8z"/>
</g>
<g>
	<path class="st0" d="M66.8,0.7h2.8l4,10.9l4-10.9h2.8v12.9h-1.8V2.3l-4.2,11.3h-1.9L68.5,2.3v11.3h-1.7V0.7z"/>
	<path class="st0" d="M82.5,9.1L82.5,9.1c0-3.1,1.9-4.9,4.2-4.9c1.4,0,2.5,0.6,3.1,1.7V4.4h1.7v9.2h-1.7V12
		c-0.6,1.1-1.7,1.8-3.1,1.8C84.3,13.8,82.5,12.1,82.5,9.1z M89.7,9.2V8.7c0-2.2-1.1-3.2-2.8-3.2c-1.5,0-2.7,1.2-2.7,3.5v0.2
		c0,2.1,1.1,3.3,2.6,3.3C88.6,12.5,89.7,11.4,89.7,9.2z"/>
	<path class="st0" d="M93.7,4.4h1.7v1.5c0.6-1.1,1.7-1.7,3.1-1.7c2.1,0,3.4,1.3,3.4,3.6v5.8h-1.7V7.9c0-1.6-0.8-2.4-2.2-2.4
		c-1.5,0-2.6,1.2-2.6,2.9v5.2h-1.7V4.4z"/>
	<path class="st0" d="M103.4,9.1L103.4,9.1c0-3.1,1.9-4.9,4.2-4.9c1.4,0,2.5,0.6,3.1,1.7V4.4h1.7v9.2h-1.7V12
		c-0.6,1.1-1.7,1.8-3.1,1.8C105.2,13.8,103.4,12.1,103.4,9.1z M110.6,9.2V8.7c0-2.2-1.1-3.2-2.8-3.2c-1.5,0-2.7,1.2-2.7,3.5v0.2
		c0,2.1,1.1,3.3,2.6,3.3C109.5,12.5,110.6,11.4,110.6,9.2z"/>
	<path class="st0" d="M115.4,15.7h5.7c0.2,0,0.3-0.1,0.3-0.3v-3.7c-0.6,1-1.7,1.7-3.1,1.7c-2.4,0-4.2-1.7-4.2-4.5V8.8
		c0-2.9,1.9-4.6,4.2-4.6c1.4,0,2.6,0.6,3.1,1.6V4.4h1.7v10.4c0,1.4-0.8,2.1-2.3,2.1h-5.4V15.7z M121.4,9V8.5c0-2.1-1.2-3-2.8-3
		c-1.6,0-2.7,1.2-2.7,3.2v0.2c0,2,1.1,3.1,2.7,3.1C120.3,12,121.4,11,121.4,9z"/>
	<path class="st0" d="M124.9,9.1L124.9,9.1c0-3,1.9-4.9,4.4-4.9c2.5,0,4.3,1.8,4.3,4.8v0.3h-7c0.1,2.1,1.1,3.2,2.8,3.2
		c1.3,0,2.2-0.7,2.5-1.8h1.7c-0.4,1.8-1.9,3.1-4.2,3.1C126.7,13.8,124.9,12,124.9,9.1z M126.6,8.1h5.3c-0.2-1.7-1.2-2.7-2.6-2.7
		C127.9,5.4,126.9,6.4,126.6,8.1z"/>
	<path class="st0" d="M135.4,4.4h1.7v1.5c0.6-1,1.7-1.6,3.1-1.6h0.8v1.5h-1.5c-1.5,0-2.4,0.9-2.4,2.4v5.4h-1.7V4.4z"/>
</g>
<title>Group</title>
<desc>Created with Sketch.</desc>
<g id="Symbols">
	<g id="Toolbar" transform="translate(-230.000000, -24.000000)">
		<g id="Group" transform="translate(228.000000, 20.000000)">
			<rect id="Rectangle" class="st1" width="146" height="24"/>
		</g>
	</g>
</g>
</svg>
